# xmcd
#
# Track frame offsets:
#	150
#	2175
#	25626
#	39548
#	43070
#	49779
#	66098
#	71308
#	76881
#	77791
#	112607
#	126062
#	133288
#	136887
#	153921
#	168250
#	178947
#	186854
#	196105
#	204772
#	221559
#	240713
#	247819
#	268048
#
# Disc length: 3625 seconds
#
# Revision: 0
# Processed by: cddbd v1.5.2PL0 Copyright (c) Steve Scherf et al.
# Submitted via: EasyCDDAExtractor 9.1.3.1
#
DISCID=3e0e2718
DTITLE=Gladys Hardy - I Love Jesus But I Drink a Little
DYEAR=2008
DGENRE=Country
TTITLE0=Welcome
TTITLE1=Ellen Calls Gladys
TTITLE2=Get Off My Case
TTITLE3=Delter
TTITLE4=Little Monday
TTITLE5=Stolen Baby Jesus
TTITLE6=Senior Moments
TTITLE7=We're Here
TTITLE8=Boogie
TTITLE9=Grace
TTITLE10=Dead Possum
TTITLE11=Winter Olympics
TTITLE12=On Hold
TTITLE13=WWGD
TTITLE14=Bill in Nashville
TTITLE15=Denny on the Job
TTITLE16=Sweet Tea Rights
TTITLE17=Awareness
TTITLE18=Eatin' Healthy
TTITLE19=Loop D Loop, (Pt. 1)
TTITLE20=Loop D Loop, (Pt. 2)
TTITLE21=Somethin' Fishy
TTITLE22=Family Tree
TTITLE23=Till We Meet Again
EXTD=
EXTT0=
EXTT1=
EXTT2=
EXTT3=
EXTT4=
EXTT5=
EXTT6=
EXTT7=
EXTT8=
EXTT9=
EXTT10=
EXTT11=
EXTT12=
EXTT13=
EXTT14=
EXTT15=
EXTT16=
EXTT17=
EXTT18=
EXTT19=
EXTT20=
EXTT21=
EXTT22=
EXTT23=
PLAYORDER=
